<svg version="1.2" xmlns="http://www.w3.org/2000/svg" viewBox="0 0 1538 1287">
	<title>Nissan_2020_logo-svg</title>
	<style>
		.s0 { fill: #000000 } 
	</style>
	<g id="Layer">
		<g id="Layer_1_1_">
			<g id="Nissan_Badge_1_">
				<path id="Layer" class="s0" d="m896.3 695.1c-1.2 0.3-6 0.3-8.2 0.3h-157.3v36.5h160.1c1.2 0 10.6 0 12.5-0.3 32.6-3 47.5-30.1 47.5-53.9 0-24.4-15.5-50.6-45.1-53.4-5.8-0.6-10.7-0.6-12.8-0.6h-104.6c-4.6 0-9.7-0.3-11.6-0.9-8.2-2.1-11.3-9.4-11.3-15.5 0-5.5 3.1-12.8 11.6-15.3 2.5-0.6 5.2-0.9 11-0.9h150.9v-35.9h-153.3c-6.4 0-11.3 0.3-15.3 0.9-26.2 3.6-44.5 24.7-44.5 51.5 0 21.9 13.7 47.5 43.9 51.8 5.5 0.6 13.1 0.6 16.5 0.6h101.8c1.8 0 6.4 0 7.3 0.3 11.6 1.5 15.6 10.1 15.6 17.7 0 7.3-4.6 15.2-14.7 17.1z"/>
				<path id="Layer" class="s0" d="m598.1 695.1c-1.2 0.3-6.1 0.3-7.9 0.3h-157.6v36.5h160.1c1.2 0 10.6 0 12.5-0.3 32.6-3 47.5-30.1 47.5-53.9 0-24.4-15.5-50.6-45.1-53.4-5.8-0.6-10.7-0.6-12.8-0.6h-104.6c-4.6 0-9.8-0.3-11.6-0.9-8.2-2.1-11.3-9.4-11.3-15.5 0-5.5 3.1-12.8 11.6-15.3 2.5-0.6 5.2-0.9 11-0.9h150.9v-35.9h-153.3c-6.4 0-11.3 0.3-15.3 0.9-26.2 3.6-44.5 24.7-44.5 51.5 0 21.9 13.7 47.5 43.9 51.8 5.5 0.6 13.1 0.6 16.5 0.6h101.8c1.8 0 6.4 0 7.3 0.3 11.6 1.5 15.6 10.1 15.6 17.7 0 7.3-4.3 15.2-14.7 17.1z"/>
				<path id="Layer" class="s0" d="m310.9 553.9h39.6v179h-39.6z"/>
				<path id="Layer" class="s0" d="m223.4 732.9v-179h-39.6v133.5l-132.1-133.5h-50.9v179h39.6v-134.2l133 134.2z"/>
				<path id="Layer" class="s0" d="m1498.3 553.9v133.5l-132.1-133.5h-50.9v179h39.6v-134.2l132.7 134.2h50v-179z"/>
				<path id="Layer" fill-rule="evenodd" class="s0" d="m1151.6 553.9l111.6 179h-47.9l-19.8-32h-130.2l-19.8 32h-48.2l111.6-179zm-21.1 41.2l-44.8 71.9h89.4z"/>
				<path id="Layer" class="s0" d="m221.3 452.4c79.9-233.2 300-389.8 548.2-389.8 248.2 0 468.7 156.6 548.2 389.8l0.7 1.9h174.7v-21.1l-72.6-8.5c-44.8-5.2-54.3-25-66.5-50l-3-6.1c-104.9-223.1-333.3-367.6-581.5-367.6-248.5 0-476.6 144.5-581.5 368.2l-3 6.1c-12.2 25-21.7 44.8-66.5 50l-72.6 8.5v21.1h174.4z"/>
				<path id="Layer" class="s0" d="m1318.4 832.8l-0.7 1.9c-79.8 233.1-300 389.5-548.2 389.5-248.2 0-468.7-156.7-548.2-389.8l-0.6-1.9h-174.5v21.1l72.6 8.5c44.8 5.2 54.3 25 66.5 50l3 6.1c104.9 223.7 333.3 368.2 581.5 368.2 248.2 0 476.6-144.5 581.5-367.9l3-6.1c12.2-25 21.7-44.8 66.5-50l72.6-8.5v-21.1z"/>
			</g>
		</g>
	</g>
</svg>