<svg xmlns="http://www.w3.org/2000/svg" xmlns:xlink="http://www.w3.org/1999/xlink" viewBox="0 0 4401 1650">
                    <path fill-rule="nonzero" fill="rgb(9.008789%, 25.488281%, 48.631287%)" fill-opacity="1" d="M 2200.160156 0 C 978.9375 0 0 366.058594 0 824.964844 C 0 1281.148438 986.980469 1650 2200.160156 1650 C 3413.351562 1650 4400.390625 1279.890625 4400.390625 824.964844 C 4400.390625 370.109375 3413.351562 0 2200.160156 0 "/>
                    <path fill-rule="nonzero" fill="rgb(100%, 100%, 100%)" fill-opacity="1" d="M 3066.808594 999.761719 C 3067.429688 1003.539062 3072.328125 1007.171875 3077.148438 1008.851562 C 3078.828125 1009.480469 3079.738281 1010.738281 3077.851562 1014.65625 C 3064.148438 1044.023438 3051.558594 1060.945312 3034.429688 1086.46875 C 3018.628906 1110.03125 3000.800781 1128.421875 2979.261719 1146.113281 C 2946.75 1173.035156 2901.640625 1202.332031 2864.308594 1182.613281 C 2847.730469 1174.011719 2840.601562 1150.867188 2840.878906 1132.058594 C 2841.789062 1079.265625 2865.140625 1025.074219 2908.570312 971.792969 C 2961.429688 906.691406 3019.890625 872.917969 3058.269531 891.378906 C 3097.921875 910.257812 3085.269531 956.269531 3067.5 992.351562 C 3066.179688 995.148438 3066.109375 997.453125 3066.808594 999.761719 M 3492.78125 588.328125 C 3495.578125 583.289062 3492.570312 579.660156 3486.210938 579.660156 C 3453.070312 579.660156 3409.570312 579.730469 3375.03125 579.730469 C 3366.78125 579.730469 3362.589844 580.710938 3358.671875 588.328125 C 3345.941406 612.800781 3190.570312 845.648438 3161.621094 890.890625 C 3156.730469 897.742188 3150.789062 896.832031 3150.089844 888.933594 C 3147.148438 862.082031 3124 831.246094 3087.429688 816.492188 C 3059.601562 805.164062 3032.328125 803.136719 3004.078125 806.839844 C 2952.96875 813.695312 2907.449219 840.683594 2867.378906 871.101562 C 2807.039062 916.972656 2755.011719 976.40625 2687.820312 1020.320312 C 2651.109375 1044.234375 2600.898438 1065.140625 2567.269531 1033.953125 C 2536.851562 1005.773438 2540.28125 943.125 2586.839844 894.664062 C 2591.738281 889.632812 2597.609375 893.828125 2596.699219 898.441406 C 2592.300781 920.328125 2597.679688 942.144531 2614.320312 957.386719 C 2634.609375 975.566406 2663.691406 977.664062 2688.589844 965.5 C 2717.878906 950.953125 2735.160156 922.914062 2740.191406 891.03125 C 2747.949219 841.59375 2709.910156 797.960938 2662.289062 794.464844 C 2623.558594 791.738281 2586.5 805.234375 2550.339844 835.019531 C 2532.230469 850.054688 2521.960938 861.171875 2506.21875 883.476562 C 2502.449219 888.933594 2496.570312 889.492188 2496.789062 881.449219 C 2498.601562 818.097656 2472.378906 782.507812 2420.011719 781.320312 C 2379.378906 780.410156 2336.03125 802.4375 2302.179688 829.355469 C 2265.128906 859.144531 2232.679688 898.652344 2197.929688 935.710938 C 2193.589844 940.257812 2189.820312 940.046875 2188.628906 931.167969 C 2187.578125 889.28125 2177.019531 848.65625 2157.648438 819.777344 C 2150.730469 809.777344 2136.320312 804.742188 2124.160156 811.597656 C 2118.558594 814.671875 2099.058594 823.621094 2084.859375 835.019531 C 2077.800781 840.824219 2075 849.285156 2078.148438 860.054688 C 2096.890625 922.707031 2092.761719 993.957031 2067.378906 1054.09375 C 2044.019531 1109.191406 1998.640625 1158.910156 1945.289062 1175.691406 C 1910.191406 1186.878906 1873.691406 1181.425781 1851.109375 1150.238281 C 1820.058594 1107.304688 1832.570312 1032.554688 1878.859375 970.464844 C 1919.699219 915.851562 1978.71875 881.101562 2037.589844 858.792969 C 2044.519531 856.066406 2045.980469 851.664062 2044.019531 845.789062 C 2040.808594 836.070312 2035.699219 822.855469 2033.609375 816.839844 C 2028.21875 802.503906 2013.121094 800.128906 1994.660156 802.15625 C 1951.859375 807.121094 1913.191406 821.804688 1875.089844 842.222656 C 1775.230469 895.714844 1725.171875 999.203125 1703.21875 1054.582031 C 1692.660156 1081.152344 1683.640625 1097.726562 1671.960938 1112.480469 C 1656.230469 1132.269531 1636.441406 1150.238281 1600.289062 1181.984375 C 1597 1184.921875 1594.621094 1191.003906 1597.351562 1196.597656 C 1601.058594 1204.289062 1619.859375 1230.792969 1625.109375 1233.167969 C 1630.980469 1236.035156 1637.839844 1232.050781 1640.558594 1230.023438 C 1665.878906 1212.890625 1696.078125 1185.761719 1710.910156 1167.300781 C 1716.078125 1161.007812 1721.46875 1163.664062 1724.191406 1173.242188 C 1738.039062 1222.539062 1774.191406 1262.746094 1824.25 1279.597656 C 1915.789062 1310.503906 2010.738281 1265.824219 2082.410156 1187.996094 C 2128 1138.5625 2144.429688 1106.746094 2161.921875 1085.140625 C 2191.5 1048.429688 2249.878906 966.40625 2319.390625 913.753906 C 2344.910156 894.316406 2375.121094 879.492188 2390.289062 889.351562 C 2402.460938 897.253906 2406.371094 915.574219 2386.859375 951.09375 C 2315.960938 1080.59375 2211.628906 1232.679688 2192.539062 1269.527344 C 2188.980469 1275.960938 2192.058594 1280.996094 2198.769531 1280.996094 C 2235.828125 1280.785156 2272.609375 1280.855469 2306.308594 1280.855469 C 2311.898438 1280.578125 2314.421875 1278.058594 2317.21875 1274.074219 C 2371.621094 1188.90625 2422.808594 1107.863281 2477.699219 1024.09375 C 2480.769531 1019.128906 2483.640625 1022.976562 2483.710938 1025.144531 C 2484.890625 1044.582031 2489.648438 1071.15625 2501.191406 1088.636719 C 2521.960938 1120.941406 2551.320312 1134.785156 2583.910156 1134.996094 C 2609.851562 1135.34375 2623 1131.359375 2650.96875 1120.941406 C 2673.761719 1112.480469 2692.011719 1101.363281 2706.070312 1091.363281 C 2714.25 1085.699219 2715.640625 1095.207031 2715.441406 1096.675781 C 2702.851562 1164.292969 2718.441406 1244.355469 2785.570312 1277.570312 C 2865.980469 1317.21875 2954.371094 1261.488281 3005.199219 1211.210938 C 3010.171875 1206.386719 3015.480469 1206.878906 3015.96875 1217.296875 C 3017.089844 1236.523438 3025.761719 1259.320312 3041.628906 1275.261719 C 3084.289062 1317.988281 3170.21875 1301.066406 3256.441406 1234.289062 C 3311.890625 1191.5625 3369.78125 1131.148438 3422.160156 1067.167969 C 3424.121094 1064.722656 3425.519531 1060.734375 3421.808594 1056.75 C 3413.839844 1048.359375 3402.300781 1038.847656 3394.398438 1031.507812 C 3390.761719 1028.429688 3385.519531 1029.269531 3382.441406 1031.578125 C 3328.808594 1082.621094 3280.488281 1140.796875 3210.710938 1188.90625 C 3187.140625 1205.339844 3149.589844 1218.625 3132.738281 1195.828125 C 3126.171875 1186.949219 3126.941406 1174.710938 3133.441406 1158.628906 C 3153.789062 1107.863281 3476 617.28125 3492.78125 588.328125 "/>
                    <path fill-rule="nonzero" fill="rgb(100%, 100%, 100%)" fill-opacity="1" d="M 1976.660156 647.53125 C 1978.058594 654.804688 1980.851562 656.203125 1984.210938 655.644531 C 2000.570312 652.359375 2018.539062 638.789062 2029.171875 623.199219 C 2038.890625 609 2043.429688 588.519531 2033.789062 580.339844 C 2025.179688 572.921875 2011.269531 575.019531 2000.921875 584.179688 C 1980.289062 602.359375 1974 628.230469 1976.660156 647.53125 M 1155.398438 1279.085938 C 1035.199219 1279.925781 929.335938 1205.667969 917.238281 1077.078125 C 910.453125 1005.894531 930.59375 942.402344 970.9375 890.101562 C 1006.671875 843.53125 1067.21875 804.792969 1118.410156 795.351562 C 1135.121094 792.277344 1157.5 794.234375 1166.730469 805.210938 C 1181.269531 822.132812 1177.070312 840.734375 1162.601562 848.144531 C 1123.511719 868.074219 1076.449219 902.265625 1053.171875 948.90625 C 1034.289062 986.945312 1030.519531 1032.816406 1059.320312 1076.585938 C 1107.570312 1149.378906 1242.109375 1151.40625 1367.128906 1035.191406 C 1398.109375 1006.804688 1425.800781 979.460938 1453.980469 947.089844 C 1509.070312 884.15625 1527.390625 861.222656 1600.609375 759.621094 C 1601.519531 758.433594 1601.730469 756.894531 1601.378906 756.195312 C 1600.75 754.867188 1599.691406 754.515625 1597.601562 754.378906 C 1548.71875 755.707031 1506.070312 770.320312 1464.671875 801.226562 C 1452.710938 809.964844 1435.589844 808.707031 1428.101562 797.242188 C 1419.710938 784.304688 1425.730469 767.453125 1439.5 757.941406 C 1506.070312 711.582031 1578.859375 703.191406 1653.191406 690.675781 C 1653.121094 690.675781 1658.359375 690.886719 1662.628906 685.292969 C 1693.121094 646.128906 1716.191406 610.75 1748.710938 571.179688 C 1781.5 530.96875 1823.808594 494.121094 1856.179688 466.429688 C 1901.28125 427.550781 1930.230469 414.550781 1959.671875 398.460938 C 1967.429688 394.480469 1958.691406 389.578125 1956.308594 389.578125 C 1792.058594 358.75 1621.308594 318.75 1458.101562 379.160156 C 1345.101562 421.328125 1295.601562 510.96875 1319.441406 570.820312 C 1336.359375 613.339844 1392.230469 620.191406 1444.539062 594.601562 C 1487.960938 573.339844 1528.160156 539.078125 1556.628906 494.890625 C 1572.640625 470.339844 1606.199219 488.03125 1588.019531 530.621094 C 1540.261719 642.851562 1449.078125 731.863281 1337.96875 735.636719 C 1243.429688 738.714844 1182.390625 669.140625 1182.601562 583.339844 C 1182.949219 414.058594 1371.460938 302.53125 1569.488281 285.890625 C 1808 266.171875 2033.859375 329.660156 2270.691406 358.398438 C 2452.070312 380.351562 2626.039062 380.839844 2808.410156 338.960938 C 2829.941406 334.269531 2845.121094 348.050781 2843.648438 369.789062 C 2841.898438 401.261719 2817.5 431.609375 2757.429688 464.328125 C 2689.179688 501.808594 2617.71875 513.140625 2543.039062 513.769531 C 2362.570312 515.308594 2194.46875 444.960938 2020.5 407.128906 C 2020.78125 414.75 2022.738281 423.839844 2016.378906 428.671875 C 1920.019531 499.710938 1832.890625 571.871094 1774.578125 673.265625 C 1772.621094 675.574219 1773.671875 677.808594 1777.019531 677.601562 C 1827.71875 674.941406 1873.238281 673.613281 1920.511719 669.839844 C 1928.761719 669.140625 1929.109375 667.113281 1928.410156 661.027344 C 1924.21875 626.070312 1934.421875 586.28125 1965.121094 558.871094 C 1996.589844 530.621094 2035.949219 527.398438 2062.109375 547.75 C 2091.75 570.890625 2089.160156 612.5 2072.949219 643.691406 C 2056.371094 675.363281 2029.101562 692.285156 2002.878906 700.464844 C 2002.878906 700.464844 1997.429688 701.722656 1998.191406 706.6875 C 1999.238281 714.660156 2034.910156 734.449219 2037.980469 739.691406 C 2040.921875 744.726562 2039.378906 752.488281 2034 758.433594 C 2030.21875 762.769531 2024.28125 766.894531 2016.71875 766.683594 C 2010.570312 766.613281 2006.859375 764.445312 1999.039062 760.25 C 1983.019531 751.578125 1963.019531 737.316406 1949.671875 720.464844 C 1945.121094 714.800781 1942.820312 714.660156 1931.421875 715.289062 C 1880.230469 718.226562 1800.449219 725.988281 1746.398438 732.699219 C 1733.320312 734.308594 1731.359375 736.757812 1728.710938 741.300781 C 1642.488281 883.457031 1550.46875 1036.730469 1449.429688 1139.308594 C 1341.050781 1249.371094 1250.980469 1278.320312 1155.398438 1279.085938 "/>
                    <path fill-rule="nonzero" fill="rgb(100%, 100%, 100%)" fill-opacity="1" d="M 2200.121094 134.910156 C 1076.648438 134.910156 165.957031 445.371094 165.957031 825.265625 C 165.957031 1205.164062 1076.648438 1515.695312 2200.121094 1515.695312 C 3323.589844 1515.695312 4234.210938 1205.164062 4234.210938 825.265625 C 4234.210938 445.371094 3323.589844 134.910156 2200.121094 134.910156 M 2200.121094 1578.277344 C 1035.75 1578.277344 91.839844 1241.105469 91.839844 825.265625 C 91.839844 409.359375 1035.75 72.25 2200.121094 72.25 C 3364.429688 72.25 4308.269531 409.359375 4308.269531 825.265625 C 4308.269531 1241.105469 3364.429688 1578.277344 2200.121094 1578.277344 "/>
</svg>